<?xml version="1.0" encoding="utf-8"?>
<!-- Generator: Adobe Illustrator 24.1.1, SVG Export Plug-In . SVG Version: 6.00 Build 0)  -->
<svg version="1.1" id="Ebene_1" xmlns="http://www.w3.org/2000/svg" xmlns:xlink="http://www.w3.org/1999/xlink" x="0px" y="0px"
	 viewBox="0 0 301.3 155.2" style="enable-background:new 0 0 301.3 155.2;" xml:space="preserve">
<path d="M266.7,13.5h-50l-10,38.3H44.5L15.1,71.1l13.4,23.3l3.7-8.4h8.6l4.7,10.8h3.1c1.5-0.7,3.3-0.7,4.8,0h10.4L68.4,86H77
	l4.7,10.8h0.1V86c4.9,0.5,15.7-1.7,18.8,3v-3c1.8,0,16.4,0,18,0c8.4-0.7,21.1,0.1,18.1,10.8h6.6V86h18v7.8l3.4-7.8h8.6l4.7,10.8h0.1
	V86c5.1,0,14.2,0,19.3,0c6.6-0.7,11.4,5.9,9.3,11.5l9.8,36h50c0,0,20-20,20-60S266.7,13.5,266.7,13.5z M197.7,74H26.6v-1h171.2V74z
	 M197.7,67.2H41.9v-2h155.9V67.2z M260.6,84.4c-6,0-10.9-4.9-10.9-10.9s4.9-10.9,10.9-10.9c6,0,10.9,4.9,10.9,10.9
	S266.6,84.4,260.6,84.4z"/>
<g>
	<path d="M39.4,101.7h-6.1l-1.1,2.8h-5.5l7-16H39l7,16h-5.6L39.4,101.7z M37.9,97.8l-1.6-4l-1.6,4H37.9z"/>
	<path d="M48.7,103.9c-0.6-0.6-0.9-1.3-0.9-2.1c0-0.9,0.3-1.6,0.9-2.1s1.3-0.8,2.2-0.8c0.9,0,1.6,0.3,2.2,0.8s0.9,1.2,0.9,2.1
		c0,0.9-0.3,1.6-0.9,2.1s-1.3,0.8-2.2,0.8C50,104.7,49.3,104.5,48.7,103.9z"/>
	<path d="M75.7,101.7h-6.1l-1.1,2.8h-5.5l7-16h5.3l7,16h-5.6L75.7,101.7z M74.2,97.8l-1.6-4l-1.6,4H74.2z"/>
	<path d="M99.4,97.7c0.5,0.7,0.8,1.5,0.8,2.4c0,1.4-0.6,2.5-1.7,3.3c-1.2,0.8-2.8,1.2-5,1.2h-9v-16h8.5c2.1,0,3.7,0.4,4.8,1.1
		c1.1,0.8,1.6,1.8,1.6,3c0,0.7-0.2,1.4-0.6,2c-0.4,0.6-0.9,1.1-1.7,1.4C98.1,96.5,98.8,97,99.4,97.7z M89.7,92.3v2.4h2.5
		c1.2,0,1.8-0.4,1.8-1.2c0-0.8-0.6-1.2-1.8-1.2H89.7z M94.7,99.5c0-0.8-0.6-1.3-1.8-1.3h-3.2v2.5h3.2
		C94.1,100.7,94.7,100.3,94.7,99.5z"/>
	<path d="M116.5,100.4v4.1h-13.3v-16h13v4.1h-7.7v1.9h6.8v3.9h-6.8v2.1H116.5z"/>
	<path d="M126.6,100.5h-1.5v4h-5.4v-16h7.7c1.5,0,2.8,0.2,3.9,0.7c1.1,0.5,1.9,1.2,2.5,2.1s0.9,2,0.9,3.2c0,1.1-0.3,2.1-0.8,3
		c-0.5,0.9-1.3,1.5-2.2,2l3.4,4.9h-5.8L126.6,100.5z M128.7,93.2c-0.4-0.3-0.9-0.5-1.6-0.5h-2v3.7h2c0.7,0,1.3-0.2,1.6-0.5
		c0.4-0.3,0.5-0.8,0.5-1.4S129.1,93.5,128.7,93.2z"/>
	<path d="M151.3,92.6v2.7h6.7v4.1h-6.7v5.1h-5.4v-16h13v4.1H151.3z"/>
	<path d="M172.1,101.7H166l-1.1,2.8h-5.5l7-16h5.3l7,16h-5.6L172.1,101.7z M170.6,97.8l-1.6-4l-1.6,4H170.6z"/>
	<path d="M180.7,88.5h5.4v16h-5.4V88.5z"/>
	<path d="M196.7,100.5h-1.5v4h-5.4v-16h7.7c1.5,0,2.8,0.2,3.9,0.7c1.1,0.5,1.9,1.2,2.5,2.1s0.9,2,0.9,3.2c0,1.1-0.3,2.1-0.8,3
		c-0.5,0.9-1.3,1.5-2.2,2l3.4,4.9h-5.8L196.7,100.5z M198.9,93.2c-0.4-0.3-0.9-0.5-1.6-0.5h-2v3.7h2c0.7,0,1.3-0.2,1.6-0.5
		c0.4-0.3,0.5-0.8,0.5-1.4S199.2,93.5,198.9,93.2z"/>
</g>
<g>
	<path d="M91.3,112.1c-0.1-0.1-0.2-0.2-0.3-0.3s-0.3-0.2-0.5-0.3c-0.2-0.1-0.4-0.2-0.7-0.2s-0.5-0.1-0.8-0.1c-0.6,0-1,0.1-1.3,0.3
		s-0.4,0.5-0.4,0.9c0,0.2,0,0.4,0.1,0.5c0.1,0.1,0.2,0.2,0.4,0.3c0.2,0.1,0.4,0.2,0.7,0.3c0.3,0.1,0.6,0.2,0.9,0.2
		c0.4,0.1,0.8,0.2,1.2,0.3s0.6,0.3,0.9,0.5c0.2,0.2,0.4,0.4,0.6,0.7s0.2,0.6,0.2,1c0,0.4-0.1,0.8-0.2,1.1c-0.2,0.3-0.4,0.6-0.7,0.8
		c-0.3,0.2-0.6,0.3-1,0.4c-0.4,0.1-0.8,0.1-1.2,0.1c-0.6,0-1.3-0.1-1.9-0.3c-0.6-0.2-1.2-0.5-1.6-0.9l0.6-1.2
		c0.1,0.1,0.3,0.2,0.5,0.3c0.2,0.1,0.4,0.2,0.7,0.4c0.3,0.1,0.5,0.2,0.8,0.3c0.3,0.1,0.6,0.1,0.9,0.1c0.5,0,0.9-0.1,1.2-0.3
		c0.3-0.2,0.4-0.5,0.4-0.8c0-0.2-0.1-0.4-0.2-0.5c-0.1-0.1-0.3-0.3-0.5-0.4c-0.2-0.1-0.4-0.2-0.7-0.3c-0.3-0.1-0.6-0.2-1-0.3
		c-0.4-0.1-0.8-0.2-1.1-0.4c-0.3-0.1-0.6-0.3-0.8-0.5c-0.2-0.2-0.4-0.4-0.5-0.6s-0.2-0.5-0.2-0.9c0-0.4,0.1-0.8,0.2-1.1
		c0.2-0.3,0.4-0.6,0.7-0.8c0.3-0.2,0.6-0.4,1-0.5c0.4-0.1,0.8-0.2,1.2-0.2c0.6,0,1.1,0.1,1.6,0.3c0.5,0.2,0.9,0.4,1.3,0.7
		L91.3,112.1z"/>
	<path d="M93.7,114.3c0-0.5,0.1-1,0.3-1.5c0.2-0.5,0.5-1,0.8-1.4c0.4-0.4,0.8-0.7,1.3-1c0.5-0.2,1.1-0.4,1.7-0.4
		c0.8,0,1.4,0.2,2,0.5c0.6,0.3,1,0.8,1.2,1.3l-1.1,0.7c-0.1-0.3-0.3-0.5-0.4-0.6s-0.4-0.3-0.6-0.4c-0.2-0.1-0.4-0.2-0.6-0.2
		s-0.4-0.1-0.6-0.1c-0.4,0-0.8,0.1-1.2,0.3c-0.3,0.2-0.6,0.4-0.8,0.7s-0.4,0.6-0.5,1c-0.1,0.4-0.2,0.7-0.2,1.1
		c0,0.4,0.1,0.8,0.2,1.2c0.1,0.4,0.3,0.7,0.6,1s0.5,0.5,0.9,0.7s0.7,0.3,1.1,0.3c0.2,0,0.4,0,0.6-0.1c0.2-0.1,0.4-0.1,0.6-0.3
		c0.2-0.1,0.4-0.3,0.6-0.4c0.2-0.2,0.3-0.4,0.4-0.6l1.1,0.6c-0.1,0.3-0.3,0.6-0.6,0.8c-0.2,0.2-0.5,0.5-0.8,0.6s-0.6,0.3-1,0.4
		c-0.3,0.1-0.7,0.1-1,0.1c-0.6,0-1.1-0.1-1.6-0.4c-0.5-0.3-0.9-0.6-1.3-1s-0.6-0.9-0.8-1.4C93.8,115.4,93.7,114.9,93.7,114.3z"/>
	<path d="M110,110.1v8.5h-1.4v-3.8h-4.3v3.8H103v-8.5h1.3v3.6h4.3v-3.6H110z"/>
	<path d="M112.5,118.7v-8.5h1.3v7.3h4.6v1.2H112.5z"/>
	<path d="M123.1,117.5c0.4,0,0.8-0.1,1.1-0.3c0.3-0.2,0.5-0.4,0.7-0.7c0.2-0.3,0.3-0.6,0.4-1c0.1-0.4,0.1-0.7,0.1-1.1v-4.3h1.4v4.3
		c0,0.6-0.1,1.1-0.2,1.7c-0.1,0.5-0.4,1-0.6,1.4c-0.3,0.4-0.7,0.7-1.1,0.9c-0.5,0.2-1,0.3-1.7,0.3c-0.7,0-1.3-0.1-1.7-0.4
		c-0.5-0.2-0.8-0.6-1.1-0.9c-0.3-0.4-0.5-0.8-0.6-1.4c-0.1-0.5-0.2-1-0.2-1.6v-4.3h1.3v4.3c0,0.4,0,0.8,0.1,1.1s0.2,0.7,0.4,1
		c0.2,0.3,0.4,0.5,0.7,0.7C122.3,117.4,122.7,117.5,123.1,117.5z M121.5,109v-1.3h1.1v1.3H121.5z M123.7,109v-1.3h1.1v1.3H123.7z"/>
	<path d="M134.3,112.1c-0.1-0.1-0.2-0.2-0.3-0.3s-0.3-0.2-0.5-0.3c-0.2-0.1-0.4-0.2-0.7-0.2s-0.5-0.1-0.8-0.1c-0.6,0-1,0.1-1.3,0.3
		s-0.4,0.5-0.4,0.9c0,0.2,0,0.4,0.1,0.5c0.1,0.1,0.2,0.2,0.4,0.3c0.2,0.1,0.4,0.2,0.7,0.3c0.3,0.1,0.6,0.2,0.9,0.2
		c0.4,0.1,0.8,0.2,1.2,0.3s0.6,0.3,0.9,0.5c0.2,0.2,0.4,0.4,0.6,0.7s0.2,0.6,0.2,1c0,0.4-0.1,0.8-0.2,1.1c-0.2,0.3-0.4,0.6-0.7,0.8
		c-0.3,0.2-0.6,0.3-1,0.4c-0.4,0.1-0.8,0.1-1.2,0.1c-0.6,0-1.3-0.1-1.9-0.3c-0.6-0.2-1.2-0.5-1.6-0.9l0.6-1.2
		c0.1,0.1,0.3,0.2,0.5,0.3c0.2,0.1,0.4,0.2,0.7,0.4c0.3,0.1,0.5,0.2,0.8,0.3c0.3,0.1,0.6,0.1,0.9,0.1c0.5,0,0.9-0.1,1.2-0.3
		c0.3-0.2,0.4-0.5,0.4-0.8c0-0.2-0.1-0.4-0.2-0.5c-0.1-0.1-0.3-0.3-0.5-0.4c-0.2-0.1-0.4-0.2-0.7-0.3c-0.3-0.1-0.6-0.2-1-0.3
		c-0.4-0.1-0.8-0.2-1.1-0.4c-0.3-0.1-0.6-0.3-0.8-0.5c-0.2-0.2-0.4-0.4-0.5-0.6s-0.2-0.5-0.2-0.9c0-0.4,0.1-0.8,0.2-1.1
		c0.2-0.3,0.4-0.6,0.7-0.8c0.3-0.2,0.6-0.4,1-0.5c0.4-0.1,0.8-0.2,1.2-0.2c0.6,0,1.1,0.1,1.6,0.3c0.5,0.2,0.9,0.4,1.3,0.7
		L134.3,112.1z"/>
	<path d="M142.2,112.1c-0.1-0.1-0.2-0.2-0.3-0.3s-0.3-0.2-0.5-0.3c-0.2-0.1-0.4-0.2-0.7-0.2s-0.5-0.1-0.8-0.1c-0.6,0-1,0.1-1.3,0.3
		s-0.4,0.5-0.4,0.9c0,0.2,0,0.4,0.1,0.5c0.1,0.1,0.2,0.2,0.4,0.3c0.2,0.1,0.4,0.2,0.7,0.3c0.3,0.1,0.6,0.2,0.9,0.2
		c0.4,0.1,0.8,0.2,1.2,0.3s0.6,0.3,0.9,0.5c0.2,0.2,0.4,0.4,0.6,0.7s0.2,0.6,0.2,1c0,0.4-0.1,0.8-0.2,1.1c-0.2,0.3-0.4,0.6-0.7,0.8
		c-0.3,0.2-0.6,0.3-1,0.4c-0.4,0.1-0.8,0.1-1.2,0.1c-0.6,0-1.3-0.1-1.9-0.3c-0.6-0.2-1.2-0.5-1.6-0.9l0.6-1.2
		c0.1,0.1,0.3,0.2,0.5,0.3c0.2,0.1,0.4,0.2,0.7,0.4c0.3,0.1,0.5,0.2,0.8,0.3c0.3,0.1,0.6,0.1,0.9,0.1c0.5,0,0.9-0.1,1.2-0.3
		c0.3-0.2,0.4-0.5,0.4-0.8c0-0.2-0.1-0.4-0.2-0.5c-0.1-0.1-0.3-0.3-0.5-0.4c-0.2-0.1-0.4-0.2-0.7-0.3c-0.3-0.1-0.6-0.2-1-0.3
		c-0.4-0.1-0.8-0.2-1.1-0.4c-0.3-0.1-0.6-0.3-0.8-0.5c-0.2-0.2-0.4-0.4-0.5-0.6s-0.2-0.5-0.2-0.9c0-0.4,0.1-0.8,0.2-1.1
		c0.2-0.3,0.4-0.6,0.7-0.8c0.3-0.2,0.6-0.4,1-0.5c0.4-0.1,0.8-0.2,1.2-0.2c0.6,0,1.1,0.1,1.6,0.3c0.5,0.2,0.9,0.4,1.3,0.7
		L142.2,112.1z"/>
	<path d="M150.9,117.5v1.2h-5.8v-8.5h5.7v1.2h-4.4v2.4h3.8v1.1h-3.8v2.6H150.9z"/>
	<path d="M152.9,118.7v-8.5h1.3v7.3h4.6v1.2H152.9z"/>
	<path d="M160.5,118.7v-8.5h3c0.7,0,1.3,0.1,1.8,0.3c0.5,0.2,0.9,0.5,1.3,0.9s0.6,0.8,0.8,1.4c0.2,0.5,0.3,1.1,0.3,1.6
		c0,0.6-0.1,1.2-0.3,1.8c-0.2,0.5-0.5,1-0.8,1.3c-0.4,0.4-0.8,0.7-1.3,0.9c-0.5,0.2-1.1,0.3-1.7,0.3H160.5z M166.3,114.4
		c0-0.4-0.1-0.9-0.2-1.2s-0.3-0.7-0.5-1c-0.2-0.3-0.5-0.5-0.9-0.6c-0.3-0.2-0.7-0.2-1.2-0.2h-1.7v6.1h1.7c0.4,0,0.8-0.1,1.2-0.2
		c0.3-0.2,0.6-0.4,0.9-0.6c0.2-0.3,0.4-0.6,0.5-1S166.3,114.8,166.3,114.4z"/>
	<path d="M169.7,118.7v-8.5h1.3v8.5H169.7z"/>
	<path d="M179.4,117.5v1.2h-5.8v-8.5h5.7v1.2h-4.4v2.4h3.8v1.1h-3.8v2.6H179.4z"/>
	<path d="M182.8,112.7v6h-1.3v-8.5h1.1l4.9,6.1v-6.1h1.4v8.5h-1.1L182.8,112.7z"/>
	<path d="M196.3,112.1c-0.1-0.1-0.2-0.2-0.3-0.3s-0.3-0.2-0.5-0.3c-0.2-0.1-0.4-0.2-0.7-0.2s-0.5-0.1-0.8-0.1c-0.6,0-1,0.1-1.3,0.3
		s-0.4,0.5-0.4,0.9c0,0.2,0,0.4,0.1,0.5c0.1,0.1,0.2,0.2,0.4,0.3c0.2,0.1,0.4,0.2,0.7,0.3c0.3,0.1,0.6,0.2,0.9,0.2
		c0.4,0.1,0.8,0.2,1.2,0.3s0.6,0.3,0.9,0.5c0.2,0.2,0.4,0.4,0.6,0.7s0.2,0.6,0.2,1c0,0.4-0.1,0.8-0.2,1.1c-0.2,0.3-0.4,0.6-0.7,0.8
		c-0.3,0.2-0.6,0.3-1,0.4c-0.4,0.1-0.8,0.1-1.2,0.1c-0.6,0-1.3-0.1-1.9-0.3c-0.6-0.2-1.2-0.5-1.6-0.9l0.6-1.2
		c0.1,0.1,0.3,0.2,0.5,0.3c0.2,0.1,0.4,0.2,0.7,0.4c0.3,0.1,0.5,0.2,0.8,0.3c0.3,0.1,0.6,0.1,0.9,0.1c0.5,0,0.9-0.1,1.2-0.3
		c0.3-0.2,0.4-0.5,0.4-0.8c0-0.2-0.1-0.4-0.2-0.5c-0.1-0.1-0.3-0.3-0.5-0.4c-0.2-0.1-0.4-0.2-0.7-0.3c-0.3-0.1-0.6-0.2-1-0.3
		c-0.4-0.1-0.8-0.2-1.1-0.4c-0.3-0.1-0.6-0.3-0.8-0.5c-0.2-0.2-0.4-0.4-0.5-0.6s-0.2-0.5-0.2-0.9c0-0.4,0.1-0.8,0.2-1.1
		c0.2-0.3,0.4-0.6,0.7-0.8c0.3-0.2,0.6-0.4,1-0.5c0.4-0.1,0.8-0.2,1.2-0.2c0.6,0,1.1,0.1,1.6,0.3c0.5,0.2,0.9,0.4,1.3,0.7
		L196.3,112.1z"/>
	<path d="M205.3,111.3h-2.8v7.3h-1.4v-7.3h-2.8v-1.2h7V111.3z"/>
</g>
</svg>
